<?xml version="1.0" standalone="no"?>
<!DOCTYPE svg PUBLIC "-//W3C//DTD SVG 20010904//EN"
 "http://www.w3.org/TR/2001/REC-SVG-20010904/DTD/svg10.dtd">
<svg version="1.0" xmlns="http://www.w3.org/2000/svg"
 width="460.000000pt" height="405.000000pt" viewBox="0 0 460.000000 405.000000"
 preserveAspectRatio="xMidYMid meet">
<metadata>
Created by potrace 1.16, written by Peter Selinger 2001-2019
</metadata>
<g transform="translate(0.000000,405.000000) scale(0.100000,-0.100000)"
fill="#000000" stroke="none">
<path d="M980 3851 c-8 -4 -35 -11 -60 -15 -134 -20 -304 -149 -364 -276 -61
-129 -44 -269 42 -353 42 -40 134 -90 159 -85 32 6 23 25 -23 48 -114 59 -169
193 -133 325 60 221 262 354 477 315 118 -22 184 -66 230 -155 22 -43 26 -63
26 -140 0 -178 -79 -319 -232 -416 -60 -38 -178 -77 -192 -63 -10 10 2 141 30
344 35 255 43 328 37 343 -5 12 -18 17 -51 17 -25 0 -48 -5 -51 -11 -4 -6 -11
-110 -16 -232 -4 -122 -13 -294 -18 -382 -6 -88 -13 -244 -17 -347 l-6 -188
26 0 c23 0 26 4 27 38 1 79 26 368 32 379 4 6 28 14 53 18 157 23 318 114 399
226 83 113 118 299 78 412 -33 91 -116 158 -233 188 -58 15 -200 22 -220 10z"/>
<path d="M1876 3521 c-3 -4 -8 -52 -12 -106 l-7 -97 -74 4 c-54 4 -73 2 -73
-7 0 -8 22 -15 58 -19 31 -4 64 -9 72 -11 13 -4 15 -41 15 -251 l0 -246 -38
-34 c-70 -64 -97 -30 -96 121 0 55 3 132 7 172 4 39 6 76 4 82 -2 6 -24 11
-48 11 -52 0 -57 -9 -68 -110 -10 -101 -36 -221 -56 -261 -24 -45 -60 -63 -88
-43 -42 29 -52 125 -28 254 26 133 70 210 132 230 34 12 37 11 65 -20 33 -35
74 -38 93 -7 15 24 -10 43 -68 51 -124 19 -256 -67 -306 -200 -46 -123 -34
-258 30 -319 26 -25 39 -30 82 -30 45 0 53 4 78 33 15 19 35 53 44 75 42 114
36 110 56 34 30 -113 74 -144 146 -102 24 14 44 30 44 34 0 5 6 11 14 14 9 4
22 -7 35 -29 11 -19 27 -37 36 -40 30 -12 87 8 125 42 40 36 60 38 60 5 0 -10
12 -30 26 -46 21 -22 31 -26 56 -21 90 18 203 179 238 338 18 81 22 85 59 52
41 -37 88 -113 96 -158 8 -38 10 -37 -76 -51 -79 -12 -156 -76 -143 -119 14
-49 83 -75 152 -57 53 15 116 72 138 126 19 46 19 46 59 39 54 -9 58 -12 50
-42 -5 -22 -4 -24 8 -13 25 20 75 131 98 216 12 44 23 82 25 84 9 10 87 -77
110 -121 40 -79 31 -108 -34 -108 -34 0 -110 -34 -139 -62 -30 -28 -29 -69 2
-98 21 -19 37 -24 78 -24 86 0 149 45 188 133 19 42 20 43 57 36 20 -4 39 -11
41 -17 15 -44 61 -115 84 -132 36 -26 128 -26 178 0 86 44 122 87 154 183 20
58 27 68 62 86 46 23 72 43 92 68 12 15 12 17 -3 11 -9 -3 -16 -9 -16 -13 0
-11 -75 -51 -94 -51 -13 0 -16 12 -16 63 0 140 -48 201 -145 183 -20 -4 -51
-20 -69 -36 -19 -17 -38 -30 -43 -30 -22 0 -102 -63 -127 -99 -29 -42 -56
-126 -56 -178 0 -31 -1 -32 -32 -26 -42 7 -42 7 -62 73 -23 70 -62 119 -142
176 -62 44 -64 47 -64 89 0 89 -34 120 -77 73 -51 -56 -49 -89 5 -134 26 -21
26 -21 14 -98 -14 -92 -40 -176 -57 -182 -7 -3 -34 -1 -61 3 -47 8 -49 9 -56
50 -4 23 -13 55 -22 71 -18 34 -125 136 -167 157 -28 15 -29 19 -29 81 0 71
-13 87 -54 65 -26 -14 -56 -61 -56 -86 0 -10 16 -33 36 -52 l36 -34 -16 -87
c-31 -167 -80 -265 -160 -317 -14 -10 -33 -15 -41 -11 -48 18 -60 186 -24 353
37 173 39 155 -17 151 l-49 -3 -8 -50 c-4 -27 -9 -119 -11 -203 l-2 -152 -30
-31 c-62 -66 -115 -70 -131 -11 -9 32 -8 345 2 450 l7 72 63 0 c84 0 212 19
223 34 11 15 42 98 42 114 0 22 -60 41 -92 30 -32 -11 -47 -51 -30 -79 9 -14
8 -19 -6 -24 -27 -11 -176 -34 -185 -28 -8 5 -3 94 9 171 5 32 4 32 -35 32
-22 0 -42 -4 -45 -9z m1639 -325 c29 -45 32 -206 4 -206 -6 0 -29 17 -50 39
-34 34 -39 44 -39 86 0 85 51 134 85 81z m-115 -93 c0 -38 34 -91 71 -111 67
-37 65 -33 45 -103 -42 -153 -147 -236 -190 -151 -35 70 -25 243 20 339 28 58
54 70 54 26z m-810 -272 c0 -72 -50 -131 -109 -131 -93 0 -113 96 -28 134 49
22 59 24 100 25 34 1 37 -1 37 -28z m441 -11 c-7 -74 -50 -120 -111 -120 -43
0 -80 30 -80 64 0 46 89 98 160 93 34 -2 35 -3 31 -37z"/>
<path d="M3766 3269 c-31 -25 -49 -64 -41 -89 3 -10 21 -25 40 -35 34 -16 35
-17 35 -78 0 -73 -17 -141 -53 -217 -31 -65 -28 -77 5 -23 34 53 59 124 78
218 l17 80 53 3 52 3 -6 -83 c-17 -210 50 -372 141 -337 39 15 93 57 93 73 0
8 -17 -4 -39 -25 -21 -22 -45 -39 -53 -39 -73 0 -91 249 -32 433 17 53 12 97
-11 97 -8 0 -15 -4 -15 -9 0 -31 -141 -97 -177 -84 -8 3 -13 23 -13 47 0 39
-21 86 -39 86 -5 0 -20 -10 -35 -21z"/>
<path d="M1276 2594 c-3 -9 -6 -80 -6 -159 0 -173 -6 -165 139 -165 l101 0 0
-170 c0 -170 0 -170 -25 -186 -38 -25 -65 -76 -65 -123 l0 -41 -63 0 c-36 0
-68 -5 -75 -12 -9 -9 -12 -153 -12 -584 0 -511 2 -574 16 -589 14 -13 43 -15
202 -13 l186 3 15 27 c14 24 14 28 -3 47 -18 20 -30 21 -173 21 l-153 0 0 505
0 505 151 0 c263 0 361 36 551 201 109 95 212 133 358 132 149 -2 231 -37 381
-163 157 -133 267 -170 512 -170 l157 0 0 -505 0 -505 -725 0 c-714 0 -725 0
-745 -20 -17 -17 -19 -24 -9 -43 7 -12 17 -25 23 -29 6 -4 349 -8 762 -8 715
0 752 1 767 18 15 17 17 72 17 589 0 453 -3 573 -13 581 -7 6 -41 12 -76 14
l-63 3 -3 50 c-3 44 -8 54 -44 86 l-41 37 0 171 0 171 103 0 c140 0 137 -4
137 176 0 96 -4 144 -12 152 -9 9 -276 12 -1139 12 -1018 0 -1127 -2 -1133
-16z m2194 -150 l0 -74 -75 0 c-72 0 -75 1 -75 23 0 29 -18 47 -45 47 -27 0
-45 -18 -45 -47 l0 -23 -315 0 c-300 0 -316 -1 -335 -20 -21 -21 -18 -46 8
-67 12 -10 93 -13 329 -13 l313 0 0 -172 0 -173 -30 -20 c-35 -24 -60 -71 -60
-114 0 -31 -1 -32 -37 -25 -69 12 -176 71 -256 143 -139 123 -263 174 -432
174 -167 -1 -290 -48 -424 -164 -96 -83 -144 -113 -220 -139 -77 -26 -81 -25
-81 5 0 41 -26 91 -59 116 l-31 23 0 173 0 173 337 0 c299 0 338 2 355 17 22
20 23 41 1 65 -15 17 -39 18 -355 18 l-338 0 0 24 c0 31 -22 48 -56 44 -22 -2
-30 -10 -36 -35 l-9 -33 -69 0 -70 0 0 75 0 75 1048 2 c576 2 1050 2 1055 0 4
-2 7 -37 7 -78z"/>
<path d="M2315 1744 c-121 -29 -171 -49 -250 -99 -99 -64 -134 -126 -122 -215
6 -48 31 -82 78 -109 35 -20 51 -21 396 -21 358 0 360 0 394 23 104 70 105
203 2 284 -119 94 -227 134 -373 139 -58 1 -114 1 -125 -2z m175 -97 c0 -7
-13 -26 -30 -42 -34 -33 -39 -70 -11 -85 32 -16 39 -13 98 45 31 30 60 55 65
55 22 0 111 -53 147 -88 28 -27 41 -47 41 -65 0 -31 -29 -64 -62 -72 -13 -3
-168 -5 -344 -3 -300 3 -323 4 -343 22 -32 29 -28 76 12 112 46 43 89 72 121
80 25 6 27 5 19 -11 -15 -26 -4 -54 24 -61 21 -6 35 4 91 60 65 65 68 66 119
66 37 0 53 -4 53 -13z"/>
<path d="M1449 1114 c-9 -11 -13 -60 -13 -186 0 -201 -2 -198 104 -198 109 0
167 52 155 140 -8 55 -8 74 1 124 8 48 -14 94 -56 119 -39 23 -172 24 -191 1z"/>
<path d="M1888 1113 c-8 -10 -18 -27 -21 -38 -3 -11 -28 -84 -56 -163 -51
-142 -51 -142 -31 -162 23 -23 53 -26 69 -6 6 7 22 44 35 82 40 117 36 115 68
33 15 -40 28 -79 28 -85 0 -15 34 -44 52 -44 24 0 51 37 45 62 -2 13 -24 75
-47 138 -23 63 -46 128 -51 143 -4 16 -13 35 -20 43 -16 19 -53 18 -71 -3z"/>
<path d="M2172 1118 c-17 -17 -17 -359 0 -376 29 -29 78 -7 78 35 0 31 6 29
51 -12 41 -36 67 -43 87 -23 27 27 13 62 -50 125 l-62 63 34 36 c19 20 47 49
63 64 42 44 32 100 -18 100 -12 0 -36 -16 -55 -35 -40 -41 -50 -43 -50 -12 0
29 -18 47 -45 47 -12 0 -26 -5 -33 -12z"/>
<path d="M2480 1111 c-6 -11 -10 -90 -10 -184 0 -201 -2 -197 119 -197 93 0
121 10 121 45 0 39 -25 55 -86 55 -50 0 -54 2 -54 24 0 20 6 24 46 29 46 5 64
18 64 47 0 29 -19 43 -62 49 -35 5 -44 10 -46 29 -3 20 1 22 45 22 56 0 93 21
93 54 0 39 -18 46 -122 46 -86 0 -98 -2 -108 -19z"/>
<path d="M2782 1118 c-17 -17 -17 -359 0 -376 19 -19 55 -14 72 10 10 14 16
44 16 75 0 52 0 53 30 53 30 0 30 -1 30 -54 0 -72 25 -105 66 -91 28 10 29 14
32 79 2 38 -2 82 -9 98 -9 22 -9 32 0 41 14 14 14 82 0 110 -27 52 -59 66
-144 67 -50 0 -86 -5 -93 -12z"/>
<path d="M3112 1118 c-21 -21 -13 -49 38 -129 49 -77 50 -79 50 -157 0 -92 12
-112 58 -96 26 9 27 13 32 99 5 87 7 92 53 162 48 73 56 100 35 121 -27 27
-62 13 -96 -38 -17 -28 -35 -50 -40 -49 -4 0 -20 21 -37 47 -31 49 -68 65 -93
40z"/>
</g>
</svg>
